<svg xmlns="http://www.w3.org/2000/svg" width="100" height="100" viewBox="0 0 100 100" id="golf"><path d="M77.354 89.018c-.402-.359-1.056-.4-2.013-.138l-3.284.614-23.088-29.642c.451-.894.632-1.74.429-3.363-.04-.32-.081-.67-.122-1.03-.18-1.562-.384-3.333-.743-4.319-.395-1.084-.812-4.292-.915-5.635a53.75 53.75 0 0 0-.141-1.476c.003-.01.014-.014.017-.024.007-.025.735-2.518 1.043-3.442.236-.711.128-1.677.024-2.611-.053-.482-.104-.937-.104-1.32 0-1.13.103-3.833.104-3.86.002-.043-.011-.083-.02-.124l.019.002a.778.778 0 0 0 .366-.082c.235-.124.371-.362.371-.654 0-.405.226-1.011.426-1.546.111-.298.217-.583.289-.834.033-.116.082-.3.143-.53.267-1.006.977-3.677 1.434-4.21.704-.822.671-1.708-.101-2.633-.469-.562-.783-1.646-.711-1.989.238.027.805.337 1.133.665.55.55 1.607.938 2.249.618.321-.16.728-.555 1.198-1.012.269-.26.543-.526.785-.729.192-.162.479-.303.979.031a.827.827 0 0 0 .826.051c.47-.219.801-.803.886-1.562.044-.393.178-.69.307-.949.357.321.719.601 1.041.795 1.065.639 2.905 1.061 3.482.292.482-.642-.1-1.169-.523-1.554-.193-.175-.424-.382-.652-.644-.646-.737-.926-1.876-.926-2.295 0-.129.142-.483.254-.769.213-.542.48-1.217.48-1.852 0-1.182-1.104-2.886-1.801-3.682-.532-.61-1.941-2.071-3.503-2.461-1.077-.271-2.236-.002-3.257.232-.289.067-.568.132-.832.18-1.307.237-1.909 1.466-2.35 2.364l-.413.838a58.4 58.4 0 0 0-.952 2.007c-.822 1.808-1.188 2.105-1.331 2.121-.358 0-.595 0-.785.315 0 .001-.067.086-.399.271-.405.225-.793.487-1.223.78-.578.392-1.231.836-2.125 1.313-1.683.897-4.266 2.968-5.966 4.469-1.858 1.64-5.319 5.746-5.956 6.702-.159.239-.452.724-.817 1.33-.967 1.604-2.766 4.59-3.483 5.163-.75.6-1.399 2.203-1.971 3.617-.268.661-.571 1.41-.737 1.611-.053.07-1.297 1.734-1.734 2.717-.5 1.125-.443 3.177-.244 4.274.204 1.122.941 4.523 1.385 5.743.409 1.125 1.675 5.768 1.977 6.977.303 1.211 1.663 6.957 1.988 8.475.181.847.485 3.66.73 5.924.178 1.646.332 3.07.419 3.597.038.228.11.63.202 1.142.37 2.062 1.236 6.891 1.156 7.857-.054.648-.054 1.537-.054 2.396 0 .842 0 1.711-.05 2.32-.025.299-.075.646-.126 1.008-.198 1.398-.385 2.722.303 3.293.989.826 5.201.849 5.243.849 1.471 0 8.216-.203 9.582-.316.997-.082 2.74-.453 2.956-1.316a1.207 1.207 0 0 0-.012-.598c.324-.057.677-.178.93-.431a.847.847 0 0 0 .249-.653c-.018-.311-.174-.832-1.338-1.763-.419-.335-1.074-.532-1.833-.761-.363-.109-.75-.227-1.138-.367-.935-.34-2.348-.854-2.918-1.613-.426-.566-.442-.937-.489-2.033-.011-.246-.023-.525-.042-.844-.037-.623-.112-1.703-.193-2.89-.146-2.123-.33-4.767-.33-5.362l-.006-.597c-.017-1.099-.044-2.937.209-4.461l.158-.921c.28-1.605.569-3.268.477-4.646-.062-.931-.525-2.635-.972-4.281-.335-1.233-.682-2.512-.816-3.315-.314-1.89-1.05-6.192-1.259-7.346-.193-1.065-.101-1.497.191-2.375.354-1.06-.139-2.518-.668-3.444l-.146-.249c-.082-.136-.182-.304-.186-.353.002-.015.023-.106.278-.403.616-.719 1.882-1.985 2.49-2.593.105-.105.205-.212.302-.319l.003.165c.027 1.449.053 2.818.109 3.317.085.765.771 2.281 1.375 3.618.133.294.253.563.364.814a.48.48 0 0 0-.065.231c0 .252-.196 2.164-.681 3.132-.618 1.234-.345 1.847.095 2.836a2.012 2.012 0 0 0 1.31 1.15 7.521 7.521 0 0 1-.155.582c-.178.592-.362 1.203.311 1.877.362.361.752.687 1.097.973.265.221.506.418.686.599.109.11.207.265.309.418.284.427.662.995 1.298.995.06 0 .123-.005.188-.016.625-.104.85-.229 1.131-.655L72.8 92.045c.035.032.798.686 1.974.686.168 0 .347-.015.531-.045l.297-.049c1.041-.166 1.862-.298 2.002-1.537.012-.109.029-.225.049-.342.088-.574.201-1.291-.299-1.74zM47.577 38.059c.088.789.188 1.683.019 2.187-.102.307-.246.774-.395 1.264a60.317 60.317 0 0 1-.108-1.046l-.028-.305c-.26-2.905-.422-4.3-.572-4.873a.94.94 0 0 0 .299-.148c.406-.305.476-.969.583-2.324l.046-.554c.104.058.202.105.297.151a.486.486 0 0 0-.147.32c-.004.111-.105 2.749-.105 3.898 0 .438.056.942.111 1.43zM57.85 18.121c-.049.435-.191.653-.271.735-.723-.438-1.471-.407-2.069.092-.259.216-.553.5-.84.779-.343.332-.769.744-.952.836-.146.074-.759-.086-1.104-.432-.321-.321-1.158-.929-1.846-.948-.16-.927-.511-2.719-.984-3.824a4.886 4.886 0 0 0-1.268-1.738c.096-.069.19-.151.281-.246.21.183.587.379 1.16.188.942-.315 1.362-1.258 1.888-1.678.33-.265.91-.528 1.295-.688.412.292.903.611 1.385.914.112.167.209.34.256.507.21.734 0 1.573.63 1.573.36 0 .889-.24 1.278-.446.146.25.312.567.463.945.238.596.707 1.257 1.25 1.854-.02.035-.037.071-.055.104-.17.322-.423.81-.497 1.473zm-6.403-9.794c.365-.748.822-1.678 1.636-1.826.276-.05.572-.118.878-.188.911-.211 1.946-.449 2.793-.237 1.325.331 2.629 1.731 2.997 2.152.735.841 1.556 2.292 1.556 3.029 0 .446-.22 1-.412 1.488-.174.437-.322.814-.322 1.133 0 .669.363 2.026 1.172 2.949.257.294.515.528.73.726.086.076.182.163.256.238-.375.038-1.248-.09-2.037-.562-.41-.247-.869-.638-1.295-1.073a.495.495 0 0 0-.188-.197c-.516-.559-.954-1.166-1.143-1.634-.442-1.108-.998-1.783-1.022-1.811a.51.51 0 0 0-.132-.112c-.889-.516-3.316-1.978-3.952-2.601l-1.673-1.15.158-.324zM45.09 93.695c-1.325.109-8.112.312-9.5.312-1.988 0-4.228-.301-4.611-.618-.175-.146-.141-.847-.069-1.507h.8s.209-2.097.209-2.411.734 2.621 1.048 2.621c.314 0 2.936-1.154 4.404-1.572.688-.197 1.396-.74 2.032-1.304.375.31.818.606 1.349.819 1.509.604 2.361.83 3.772 1.206l.268.071c1.382.367 2.146 1.291 2.153 1.301.133.172.242.423.238.464-.119.17-.923.521-2.093.618zm-.443-3.966c.406.146.812.27 1.191.383.632.191 1.23.371 1.499.586.696.559.893.869.947.988-.166.103-.472.137-.722.133a5.501 5.501 0 0 0-2.513-1.463l-.268-.07c-1.376-.366-2.206-.588-3.66-1.168a3.922 3.922 0 0 1-.979-.575c.405-.381.756-.71 1.005-.853.02-.01.026-.035.043-.049.032.047.048.088.084.137.689.917 2.045 1.467 3.373 1.951zm-4.585-49.362c-.469.469-1.321 1.321-1.985 2.033-.39-.48-1.142-1.348-1.962-2.416-1.049-1.363-3.041-1.782-4.194-2.412-.883-.481-3.853-1.515-5.196-1.973.331-.724.681-1.371.997-1.624.791-.632 2.208-2.928 3.714-5.426.354-.588.638-1.059.792-1.291.601-.901 4.018-4.947 5.788-6.508 1.792-1.582 4.272-3.536 5.776-4.338.941-.502 1.618-.962 2.215-1.368.404-.275.767-.521 1.147-.733.148-.082.259-.154.356-.222a3.96 3.96 0 0 1 1.358 1.662c.53 1.237.915 3.548.997 4.066-.282.872.352 2.366.859 2.976.469.561.496.902.11 1.352-.502.585-1.019 2.263-1.64 4.602-.059.223-.106.4-.139.513-.065.229-.163.488-.264.76-.198.53-.401 1.075-.467 1.577a5.315 5.315 0 0 1-.774-.421c.018-.106.035-.214.056-.313.19-.888.549-1.666.896-2.417.204-.44.399-.865.554-1.291l.101-.275c.445-1.203.999-2.699.098-3.601a.496.496 0 0 0-.702.701c.452.452.02 1.618-.327 2.555l-.103.28c-.146.4-.332.8-.522 1.214-.352.764-.751 1.629-.964 2.625-.138.64-.198 1.406-.252 2.082-.049.62-.116 1.469-.171 1.598-.232.083-1.17-.271-1.731-.482l-.547-.204c-1.156-.42-2.863-1.236-3.414-1.695-.164-.184-.052-1.2.008-1.746.076-.69.154-1.403.055-1.949-.209-1.152-.733-4.189-.733-4.189l-.978.168s.525 3.044.735 4.198c.073.404.003 1.044-.065 1.664-.126 1.146-.234 2.134.34 2.613.296.247.797.54 1.356.827-.105.849-.364 3.099-.275 4.079.029.317.05.916.067 1.621-.183.244-.552.71-.97 1.128zm3.083 14.031c-.389-.875-.494-1.11-.086-1.926.261-.521.444-1.238.569-1.897.208.688.369 1.394.489 2.171.133.861-.066 1.535-.276 2.25l-.016.059c-.209-.073-.496-.243-.68-.657zm4.001 6.066c-.099-.009-.355-.337-.497-.55a3.66 3.66 0 0 0-.434-.57 12.108 12.108 0 0 0-.753-.66 14.582 14.582 0 0 1-1.029-.91c-.244-.244-.232-.326-.062-.892.065-.217.139-.465.198-.76.057-.285.14-.563.224-.845.221-.752.472-1.603.305-2.684a16.11 16.11 0 0 0-1.081-3.89 49.176 49.176 0 0 0-.559-1.264c-.517-1.144-1.225-2.71-1.293-3.318-.051-.455-.078-1.864-.103-3.227-.009-.483-.018-.955-.028-1.394a.48.48 0 0 0-.007-.309 31.05 31.05 0 0 0-.07-1.666c-.07-.775.117-2.563.232-3.532.513.232 1.015.439 1.412.583l.536.2c.504.191.957.356 1.361.457a.523.523 0 0 0 .025.241c.112.285.299 1.89.557 4.771l.028.306c.044.484.125 1.208.211 1.986.12 1.073.251 2.251.312 3.041.093 1.204.504 4.613.972 5.897.319.877.524 2.66.69 4.094.042.365.082.717.123 1.041.193 1.547.012 2.191-.465 3.053-.411.733-.411.733-.805.801zm29.525 30.14c-.021.133-.042.262-.056.385-.051.457-.08.496-1.172.67l-.303.05c-.951.155-1.609-.343-1.627-.343v.002l-.771-.992 2.82-.529c.934-.256 1.119-.096 1.129-.089.099.088.019.599-.02.846z"></path></svg>